<?xml version="1.0" standalone="no"?>
<!DOCTYPE svg PUBLIC "-//W3C//DTD SVG 20010904//EN"
 "http://www.w3.org/TR/2001/REC-SVG-20010904/DTD/svg10.dtd">
<svg version="1.0" xmlns="http://www.w3.org/2000/svg"
 width="260.000000pt" height="260.000000pt" viewBox="0 0 260.000000 260.000000"
 preserveAspectRatio="xMidYMid meet">
<metadata>
Created by potrace 1.11, written by Peter Selinger 2001-2013
</metadata>
<g transform="translate(0.000000,260.000000) scale(0.100000,-0.100000)"
fill="#000000" stroke="none">
<path d="M689 1833 l-604 -526 -3 -85 c-2 -51 1 -83 7 -80 5 1 63 50 128 108
369 329 1067 946 1077 952 6 3 83 -58 182 -145 93 -84 267 -237 385 -342 118
-104 312 -276 431 -382 119 -106 219 -193 222 -193 3 0 6 37 6 83 l0 82 -247
215 c-346 300 -621 541 -805 702 -87 76 -161 138 -166 138 -5 0 -280 -237
-613 -527z"/>
<path d="M910 1240 l0 -180 160 0 160 0 0 180 0 180 -160 0 -160 0 0 -180z
m230 0 l0 -110 -70 0 -70 0 0 110 0 110 70 0 70 0 0 -110z"/>
<path d="M1360 1240 l0 -180 155 0 155 0 0 180 0 180 -155 0 -155 0 0 -180z
m220 10 c0 -55 0 -103 0 -107 0 -5 -30 -8 -67 -8 l-68 0 -3 94 c-1 52 -1 100
2 108 4 9 26 13 71 13 l65 0 0 -100z"/>
<path d="M912 823 l3 -178 155 0 155 0 3 178 2 177 -160 0 -160 0 2 -177z
m228 -3 l0 -111 -67 3 -68 3 -3 108 -3 107 71 0 70 0 0 -110z"/>
<path d="M1360 820 l0 -180 155 0 155 0 0 180 0 180 -155 0 -155 0 0 -180z
m220 0 l0 -111 -67 3 -68 3 -3 94 c-1 52 -1 100 2 108 4 9 26 13 71 13 l65 0
0 -110z"/>
</g>
</svg>
